<?xml version="1.0" encoding="UTF-8" standalone="no"?>
<!-- Created with Inkscape (http://www.inkscape.org/) -->

<svg
   xmlns:dc="http://purl.org/dc/elements/1.1/"
   xmlns:cc="http://creativecommons.org/ns#"
   xmlns:rdf="http://www.w3.org/1999/02/22-rdf-syntax-ns#"
   xmlns:svg="http://www.w3.org/2000/svg"
   xmlns="http://www.w3.org/2000/svg"
   xmlns:sodipodi="http://sodipodi.sourceforge.net/DTD/sodipodi-0.dtd"
   xmlns:inkscape="http://www.inkscape.org/namespaces/inkscape"
   width="159.74809"
   height="89.748108"
   id="svg2995"
   version="1.1"
   inkscape:version="0.91 r13725"
   sodipodi:docname="navigation_drawer_header.svg"
   inkscape:export-filename="/home/manjul/navigation_drawer_header.png"
   inkscape:export-xdpi="901.41913"
   inkscape:export-ydpi="901.41913">
  <defs
     id="defs2997">
    <clipPath
       clipPathUnits="userSpaceOnUse"
       id="clipPath3811">
      <ellipse
         style="fill:#808080;fill-opacity:1;fill-rule:evenodd;stroke:#000000;stroke-width:1.0507791;stroke-miterlimit:4;stroke-dasharray:none;stroke-dashoffset:0;stroke-opacity:1"
         id="path3813"
         transform="matrix(0.92658961,0,0,0.977439,537.24692,-31.254182)"
         cx="-256.42856"
         cy="523.79077"
         rx="123.57143"
         ry="117.14286" />
    </clipPath>
    <filter
       inkscape:label="Cracked Lava"
       inkscape:menu="Materials"
       inkscape:menu-tooltip="A volcanic texture, a little like leather"
       style="color-interpolation-filters:sRGB"
       id="filter4805">
      <feGaussianBlur
         result="result0"
         in="SourceGraphic"
         stdDeviation="0.5"
         id="feGaussianBlur4807" />
      <feTurbulence
         baseFrequency="0.042"
         seed="488"
         numOctaves="7"
         result="result1"
         id="feTurbulence4809" />
      <feDisplacementMap
         result="result5"
         xChannelSelector="R"
         scale="0"
         in2="result1"
         in="result1"
         yChannelSelector="G"
         id="feDisplacementMap4811" />
      <feComposite
         result="result2"
         operator="in"
         in2="result5"
         in="result0"
         id="feComposite4813" />
      <feSpecularLighting
         lighting-color="#ffe688"
         surfaceScale="2"
         result="result4"
         specularConstant="2"
         specularExponent="65"
         in="result2"
         id="feSpecularLighting4815">
        <feDistantLight
           elevation="62"
           azimuth="225"
           id="feDistantLight4817" />
      </feSpecularLighting>
      <feComposite
         k1="2.5"
         k3="1"
         k2="-0.5"
         in2="result2"
         in="result4"
         operator="arithmetic"
         result="result91"
         id="feComposite4819"
         k4="0" />
      <feBlend
         result="fbSourceGraphic"
         mode="multiply"
         in2="result91"
         id="feBlend4821" />
      <feColorMatrix
         values="1 0 0 -1 0 1 0 1 -1 0 1 0 0 -1 0 -2 -0.5 0 5 -2"
         in="fbSourceGraphic"
         result="fbSourceGraphicAlpha"
         id="feColorMatrix4823" />
      <feGaussianBlur
         stdDeviation="8"
         in="fbSourceGraphicAlpha"
         result="result0"
         id="feGaussianBlur4825" />
      <feOffset
         dx="2"
         dy="2"
         in="result0"
         result="result3"
         id="feOffset4827" />
      <feSpecularLighting
         in="result0"
         result="result1"
         lighting-color="#ffffff"
         surfaceScale="4"
         specularConstant="0.80000001"
         specularExponent="15"
         id="feSpecularLighting4829">
        <fePointLight
           x="-5000"
           y="-10000"
           z="20000"
           id="fePointLight4831" />
      </feSpecularLighting>
      <feComposite
         in2="fbSourceGraphicAlpha"
         in="result1"
         result="result2"
         operator="in"
         id="feComposite4833" />
      <feComposite
         in="fbSourceGraphic"
         result="result4"
         operator="arithmetic"
         k2="2"
         k3="2"
         in2="result2"
         id="feComposite4835"
         k1="0"
         k4="0" />
      <feBlend
         mode="darken"
         in2="result4"
         id="feBlend4837" />
    </filter>
    <clipPath
       clipPathUnits="userSpaceOnUse"
       id="clipPath3388">
      <path
         style="fill:#000000;fill-rule:evenodd;stroke:#000000;stroke-width:0.25189298;stroke-linecap:butt;stroke-linejoin:miter;stroke-miterlimit:4;stroke-dasharray:none;stroke-opacity:1"
         d="m 248.12598,369.20243 159.7481,0 0,89.74811 -159.7481,0 z"
         id="path3390"
         inkscape:connector-curvature="0" />
    </clipPath>
  </defs>
  <sodipodi:namedview
     id="base"
     pagecolor="#ffffff"
     bordercolor="#666666"
     borderopacity="1.0"
     inkscape:pageopacity="0.0"
     inkscape:pageshadow="2"
     inkscape:zoom="2.8"
     inkscape:cx="106.948"
     inkscape:cy="45.045952"
     inkscape:document-units="px"
     inkscape:current-layer="layer1"
     showgrid="false"
     fit-margin-top="0"
     fit-margin-left="0"
     fit-margin-right="0"
     fit-margin-bottom="0"
     inkscape:window-width="1280"
     inkscape:window-height="748"
     inkscape:window-x="0"
     inkscape:window-y="0"
     inkscape:window-maximized="1" />
  <metadata
     id="metadata3000">
    <rdf:RDF>
      <cc:Work
         rdf:about="">
        <dc:format>image/svg+xml</dc:format>
        <dc:type
           rdf:resource="http://purl.org/dc/dcmitype/StillImage" />
        <dc:title />
      </cc:Work>
    </rdf:RDF>
  </metadata>
  <g
     inkscape:label="Layer 1"
     inkscape:groupmode="layer"
     id="layer1"
     transform="translate(-248.48312,-369.55957)">
    <g
       id="g3375"
       transform="translate(0.35714357,0.35714186)"
       clip-path="url(#clipPath3388)">
      <g
         transform="translate(0,1.2502184e-5)"
         id="g3363">
        <rect
           y="369.20242"
           x="248.12598"
           height="89.748108"
           width="159.74811"
           id="rect3357"
           style="fill:#000000;fill-rule:evenodd;stroke:#000000;stroke-width:0.25189298;stroke-linecap:butt;stroke-linejoin:miter;stroke-miterlimit:4;stroke-dasharray:none;stroke-opacity:1" />
      </g>
      <path
         inkscape:connector-curvature="0"
         id="rect3418"
         d="m 256.07226,369.63385 c 0.43136,1.76668 0.64844,3.94943 0.64844,6.56244 0,4.04681 -0.51918,7.08518 -1.56054,9.11516 -1.02819,2.01682 -2.57692,3.02538 -4.64647,3.02538 -0.71506,0 -1.36469,-0.13113 -1.95702,-0.375 l 0,3.35543 c 0.62126,0.11307 1.26838,0.1836 1.95702,0.1836 3.30864,0 5.83223,-1.30404 7.57223,-3.91403 1.75318,-2.62318 2.6289,-6.42101 2.6289,-11.39054 0,-2.48234 -0.21722,-4.669 -0.65234,-6.56244 l -3.99022,0 z m 18.90031,0 0,17.93149 -6.52536,0 0,3.36131 17.00382,0 0,-3.36131 -6.52536,0 0,-17.93149 -3.9531,0 z m 17.55265,0 c -0.43185,1.89344 -0.64843,4.08011 -0.64843,6.56244 0,4.96953 0.87131,8.76736 2.61131,11.39054 1.75318,2.60999 4.28313,3.91403 7.59177,3.91403 3.30863,0 5.83418,-1.30404 7.57418,-3.91403 1.75318,-2.62318 2.62889,-6.42101 2.62889,-11.39054 0,-2.48234 -0.21916,-4.669 -0.65429,-6.56244 l -3.99022,0 c 0.43143,1.76675 0.65039,3.94922 0.65039,6.56244 0,4.04681 -0.52113,7.08518 -1.56249,9.11516 -1.02818,2.01682 -2.57692,3.02538 -4.64646,3.02538 -2.05637,0 -3.6051,-1.00856 -4.64647,-3.02538 -1.02818,-2.02998 -1.54296,-5.06835 -1.54296,-9.11516 0,-2.61304 0.21667,-4.79575 0.64258,-6.56244 l -4.0078,0 z m 34.01352,0 0,17.93149 -6.52536,0 0,3.36131 17.00578,0 0,-3.36131 -6.52536,0 0,-17.93149 -3.95506,0 z m 17.55461,0 c -0.43186,1.89344 -0.64844,4.08011 -0.64844,6.56244 0,4.96953 0.86937,8.76736 2.60937,11.39054 1.75318,2.60999 4.28508,3.91403 7.59371,3.91403 3.30864,0 5.83224,-1.30404 7.57223,-3.91403 1.75318,-2.62318 2.63085,-6.42101 2.63085,-11.39054 0,-2.48234 -0.21916,-4.669 -0.65429,-6.56244 l -3.99022,0 c 0.43136,1.76668 0.65039,3.94943 0.65039,6.56244 0,4.04681 -0.52113,7.08518 -1.5625,9.11516 -1.02817,2.01682 -2.57691,3.02538 -4.64646,3.02538 -2.05636,0 -3.6051,-1.00856 -4.64646,-3.02538 -1.02818,-2.02998 -1.54296,-5.06835 -1.54296,-9.11516 0,-2.61304 0.21471,-4.79575 0.64062,-6.56244 l -4.00584,0 z m 34.01351,0 0,17.93149 -6.52536,0 0,3.36131 17.00384,0 0,-3.36131 -6.52536,0 0,-17.93149 -3.95312,0 z m 17.55462,0 c -0.43186,1.89344 -0.65039,4.0801 -0.65039,6.56244 0,4.96953 0.87131,8.76736 2.61132,11.39054 1.75318,2.60999 4.28312,3.91403 7.59175,3.91403 0.78787,0 1.5296,-0.0786 2.22851,-0.22656 l 0,-3.42771 c -0.66065,0.32197 -1.40161,0.49024 -2.22851,0.49024 -2.05636,0 -3.60509,-1.00856 -4.64646,-3.02538 -1.02818,-2.02998 -1.54101,-5.06835 -1.54101,-9.11516 0,-2.61304 0.21472,-4.79575 0.64063,-6.56244 l -4.00584,0 z m -119.3647,29.70874 c -3.30864,0 -5.84054,1.31235 -7.59372,3.93552 -1.74,2.60999 -2.60936,6.40588 -2.60936,11.38858 0,4.96953 0.86936,8.7654 2.60936,11.38858 1.75318,2.60999 4.28508,3.91598 7.59372,3.91598 3.30863,0 5.83223,-1.30599 7.57223,-3.91598 1.75318,-2.62318 2.63085,-6.41905 2.63085,-11.38858 0,-4.9827 -0.87767,-8.77859 -2.63085,-11.38858 -1.74,-2.62317 -4.2636,-3.93552 -7.57223,-3.93552 z m 51.56617,0 c -3.30863,0 -5.83858,1.31235 -7.59176,3.93552 -1.74,2.60999 -2.60936,6.40588 -2.60936,11.38858 0,4.96953 0.86936,8.7654 2.60936,11.38858 1.75318,2.60999 4.28313,3.91598 7.59176,3.91598 3.30864,0 5.83419,-1.30599 7.57419,-3.91598 1.75318,-2.62318 2.62889,-6.41905 2.62889,-11.38858 0,-4.9827 -0.87571,-8.77859 -2.62889,-11.38858 -1.74,-2.62317 -4.26555,-3.93552 -7.57419,-3.93552 z m 51.56813,0 c -3.30864,0 -5.83859,1.31235 -7.59177,3.93552 -1.73999,2.60999 -2.61131,6.40588 -2.61131,11.38858 0,4.96953 0.87132,8.7654 2.61131,11.38858 1.75318,2.60999 4.28313,3.91598 7.59177,3.91598 3.30863,0 5.83223,-1.30599 7.57223,-3.91598 1.75319,-2.62318 2.63085,-6.41905 2.63085,-11.38858 0,-4.9827 -0.87766,-8.77859 -2.63085,-11.38858 -1.74,-2.62317 -4.2636,-3.93552 -7.57223,-3.93552 z m -130.28262,0.5332 -0.59179,0.11914 0,3.64645 0.63086,-0.12694 0,22.52129 -0.63086,0 0,3.36131 11.11128,0 0,-3.36131 -6.52536,0 0,-26.15994 -3.99413,0 z m 51.56813,0 -7.05856,1.42382 0,3.63864 7.09762,-1.42381 0,22.52129 -6.52536,0 0,3.36131 17.00383,0 0,-3.36131 -6.52341,0 0,-26.15994 -3.99412,0 z m 51.56617,0 -7.05856,1.42382 0,3.63864 7.09763,-1.42381 0,22.52129 -6.52341,0 0,3.36131 17.00382,0 0,-3.36131 -6.52536,0 0,-26.15994 -3.99412,0 z m 51.56813,0 -7.05856,1.42382 0,3.63864 7.09762,-1.42381 0,22.52129 -6.52536,0 0,3.36131 10.07808,0 0,-29.52125 -3.59178,0 z m -127.55411,2.63084 c 2.06954,0 3.61828,1.0149 4.64646,3.0449 1.04136,2.01681 1.56249,5.05518 1.56249,9.11516 0,4.0468 -0.52113,7.08517 -1.56249,9.11516 -1.02818,2.01682 -2.57692,3.02537 -4.64646,3.02537 -2.05636,0 -3.6051,-1.00855 -4.64646,-3.02537 -1.02819,-2.02999 -1.54297,-5.06836 -1.54297,-9.11516 0,-4.05998 0.51478,-7.09835 1.54297,-9.11516 1.04136,-2.03 2.5901,-3.0449 4.64646,-3.0449 z m 51.56617,0 c 2.06955,0 3.62024,1.0149 4.64842,3.0449 1.04136,2.01681 1.56054,5.05518 1.56054,9.11516 0,4.0468 -0.51918,7.08517 -1.56054,9.11516 -1.02818,2.01682 -2.57887,3.02537 -4.64842,3.02537 -2.05636,0 -3.6051,-1.00855 -4.64646,-3.02537 -1.02818,-2.02999 -1.54101,-5.06836 -1.54101,-9.11516 0,-4.05998 0.51283,-7.09835 1.54101,-9.11516 1.04136,-2.03 2.5901,-3.0449 4.64646,-3.0449 z m 51.56813,0 c 2.06954,0 3.61828,1.0149 4.64646,3.0449 1.04136,2.01681 1.56249,5.05518 1.56249,9.11516 0,4.0468 -0.52113,7.08517 -1.56249,9.11516 -1.02818,2.01682 -2.57692,3.02537 -4.64646,3.02537 -2.05636,0 -3.60511,-1.00855 -4.64646,-3.02537 -1.02819,-2.02999 -1.54296,-5.06836 -1.54296,-9.11516 0,-4.05998 0.51477,-7.09835 1.54296,-9.11516 1.04135,-2.03 2.5901,-3.0449 4.64646,-3.0449 z m -128.91739,35.30636 c -0.68856,0 -1.33582,0.07 -1.95702,0.18359 l 0,3.35544 c 0.59221,-0.24533 1.24215,-0.375 1.95702,-0.375 2.06955,0 3.61828,1.01491 4.64647,3.0449 1.04136,2.01681 1.56054,5.05518 1.56054,9.11517 0,2.05587 -0.13358,3.8474 -0.40235,5.38276 l 3.97069,0 c 0.27951,-1.61018 0.42578,-3.3985 0.42578,-5.38276 0,-4.98271 -0.87572,-8.78055 -2.6289,-11.39054 -1.74,-2.62317 -4.26359,-3.93356 -7.57223,-3.93356 z m 51.56618,0 c -3.30864,0 -5.83859,1.31039 -7.59177,3.93356 -1.74,2.60999 -2.61131,6.40783 -2.61131,11.39054 0,1.98414 0.14449,3.77266 0.42187,5.38276 l 3.99217,0 c -0.26537,-1.53537 -0.40039,-3.32687 -0.40039,-5.38276 0,-4.05999 0.51478,-7.09836 1.54296,-9.11517 1.04137,-2.02999 2.5901,-3.0449 4.64647,-3.0449 2.06954,0 3.61828,1.01491 4.64646,3.0449 1.04136,2.01681 1.56249,5.05518 1.56249,9.11517 0,2.05588 -0.13553,3.84739 -0.40429,5.38276 l 3.97264,0 c 0.2795,-1.61016 0.42577,-3.39853 0.42577,-5.38276 0,-4.98271 -0.87571,-8.78055 -2.62889,-11.39054 -1.74,-2.62317 -4.26555,-3.93356 -7.57418,-3.93356 z m 51.56812,0 c -3.30863,0 -5.84053,1.31039 -7.59371,3.93356 -1.74,2.60999 -2.60937,6.40783 -2.60937,11.39054 0,1.98414 0.1445,3.77266 0.42188,5.38276 l 3.99021,0 c -0.26537,-1.53537 -0.39843,-3.32687 -0.39843,-5.38276 0,-4.05999 0.51478,-7.09836 1.54296,-9.11517 1.04136,-2.02999 2.5901,-3.0449 4.64646,-3.0449 2.06955,0 3.61829,1.01491 4.64646,3.0449 1.04137,2.01681 1.5625,5.05518 1.5625,9.11517 0,2.05587 -0.13553,3.8474 -0.4043,5.38276 l 3.97069,0 c 0.27951,-1.61018 0.42773,-3.3985 0.42773,-5.38276 0,-4.98271 -0.87767,-8.78055 -2.63085,-11.39054 -1.73999,-2.62317 -4.26359,-3.93356 -7.57223,-3.93356 z m 51.56617,0 c -3.30863,0 -5.83857,1.31039 -7.59175,3.93356 -1.74001,2.60999 -2.61132,6.40783 -2.61132,11.39054 0,1.98426 0.14642,3.77258 0.42383,5.38276 l 3.99021,0 c -0.26537,-1.53537 -0.39844,-3.32687 -0.39844,-5.38276 0,-4.05999 0.51283,-7.09836 1.54101,-9.11517 1.04137,-2.02999 2.5901,-3.0449 4.64646,-3.0449 0.82683,0 1.5679,0.16817 2.22851,0.49219 l 0,-3.42771 c -0.69892,-0.14874 -1.44063,-0.22851 -2.22851,-0.22851 z m -130.28261,0.53319 -7.05856,1.42382 0,3.63864 7.09958,-1.42381 0,16.53502 3.9531,0 0,-20.17367 -3.99412,0 z m 51.56813,0 -7.05857,1.42382 0,3.63864 7.09763,-1.42381 0,16.53502 3.95506,0 0,-20.17367 -3.99412,0 z m 51.56617,0 -7.05856,1.42382 0,3.63864 7.09957,-1.42381 0,16.53502 3.95312,0 0,-20.17367 -3.99413,0 z"
         style="fill:#00ff00;fill-rule:evenodd;stroke:#00ff00;stroke-width:1.11399996;stroke-linecap:butt;stroke-linejoin:miter;stroke-miterlimit:4;stroke-dasharray:none;stroke-opacity:1;filter:url(#filter4805)" />
    </g>
  </g>
  <g
     inkscape:groupmode="layer"
     id="layer2"
     inkscape:label="Layer 2"
     transform="translate(-0.48309357,-0.48308186)" />
</svg>
